<svg id="LOGO" xmlns="http://www.w3.org/2000/svg" viewBox="0 0 245.58 405.17"><defs><style>.cls-1{fill:#fff;}.cls-2{fill:#009640;opacity:0.39;}</style></defs><g id="Fondo_hoja_der" data-name="Fondo hoja der"><path class="cls-1" d="M730.85,379.43c-27.68-58.87-106.59,20.94-151.6,74.36-9,10.73-16.72,20.39-22.34,27.65a68.91,68.91,0,0,0-13.18,29.16L510.57,683.41,500,738.49s7.31-4.61,19.12-12.52c19.12-12.83,50-34.33,80.9-59,9.84-7.88,19.67-16.09,29.1-24.45a441,441,0,0,0,38.69-38.2A493,493,0,0,0,703.9,558.4C740.56,504.92,761.37,444.33,730.85,379.43Z" transform="translate(-500 -333.32)"/><path class="cls-1" d="M677,350c-35.84-54.29-102.48,36-139.38,95.34C530.18,457.28,524,468,519.45,475.94a69,69,0,0,0-8.86,30.74l-8,175.78-2.56,56s6.58-5.61,17.13-15.14c17.08-15.43,44.6-41.15,71.59-70,8.61-9.22,17.16-18.75,25.3-28.38a438.83,438.83,0,0,0,32.8-43.35A492.32,492.32,0,0,0,676,531C704.58,472.83,716.48,409.88,677,350Z" transform="translate(-500 -333.32)"/></g><g id="hoja_der" data-name="hoja der"><path class="cls-2" d="M730.85,379.43c-27.68-58.87-106.59,20.94-151.6,74.36-9,10.73-16.72,20.39-22.34,27.65a68.91,68.91,0,0,0-13.18,29.16L510.57,683.41,500,738.49s7.31-4.61,19.12-12.52c19.12-12.83,50-34.33,80.9-59,9.84-7.88,19.67-16.09,29.1-24.45a441,441,0,0,0,38.69-38.2A493,493,0,0,0,703.9,558.4C740.56,504.92,761.37,444.33,730.85,379.43Z" transform="translate(-500 -333.32)"/><path class="cls-2" d="M677,350c-35.84-54.29-102.48,36-139.38,95.34C530.18,457.28,524,468,519.45,475.94a69,69,0,0,0-8.86,30.74l-8,175.78-2.56,56s6.58-5.61,17.13-15.14c17.08-15.43,44.6-41.15,71.59-70,8.61-9.22,17.16-18.75,25.3-28.38a438.83,438.83,0,0,0,32.8-43.35A492.32,492.32,0,0,0,676,531C704.58,472.83,716.48,409.88,677,350Z" transform="translate(-500 -333.32)"/></g></svg>